<svg xmlns="http://www.w3.org/2000/svg" enable-background="new 0 0 24 24" viewBox="0 0 24 24"><path fill="#B2B2B2" d="M10.9 20.74V23c-5.719-.54-10.12-3.78-10.12-7.71 0-3.78 2.499-6.508 7.93-7.208v2.27c-3.556.66-4.56 2.388-4.56 4.938C4.15 17.99 7.056 20.22 10.9 20.74zM24 13.851V13.85l-.493-5.156-1.875 1.047c-1.746-1.047-2.608-1.325-5.083-1.616V10.4c1.419.254 1.344.242 2.389.85l-1.972 1.094L24 13.851z"/><polygon fill="#F7931F" points="14.54 1 14.54 21.31 10.9 23 10.9 2.76"/><rect width=".01" height="8.1" x="14.54" y="13.21" fill="#F7931F"/><path d="M23.25 14.52c-.054 0-.108-.006-.162-.018l-6.49-1.439c-.305-.067-.535-.316-.58-.625-.045-.308.105-.612.378-.763l.611-.34c-.25-.093-.51-.177-.779-.252-.324-.091-.548-.387-.548-.723V8.07c0-.225.101-.437.273-.579.174-.143.401-.197.621-.157 1.736.341 3.302.894 4.662 1.645l1.43-.794c.227-.127.502-.126.73.001.227.126.371.361.383.621l.22 4.93c.011.232-.088.457-.267.607C23.596 14.458 23.425 14.52 23.25 14.52zM18.853 12.026l3.604.799-.122-2.741-.74.411c-.233.132-.519.126-.748-.011-1.052-.628-2.306-1.132-3.667-1.478v.799c.671.224 1.291.501 1.849.827.233.136.375.386.372.655s-.15.517-.386.647L18.853 12.026zM10.95 23.25c-.021 0-.044-.001-.065-.003C4.577 22.692 0 19.283 0 15.14c0-3.681 3.452-6.737 8.796-7.786.221-.04.447.015.621.157C9.59 7.653 9.69 7.865 9.69 8.09v2.26c0 .334-.221.627-.541.721C6.465 11.849 4.73 13.446 4.73 15.14c0 1.691 1.734 3.289 4.42 4.07.137.045.249.072.362.1l.177.045c.166.04.333.076.501.108V3.18c0-.288.165-.551.425-.676l3.489-1.68c.229-.111.505-.097.725.041C15.047 1.002 15.18 1.242 15.18 1.5v19.38c0 .292-.17.558-.435.681l-2.996 1.398c-.024.012-.049.021-.074.03l-.407.19C11.168 23.226 11.06 23.25 10.95 23.25zM8.19 9.027C4.152 10.06 1.5 12.448 1.5 15.14c0 3.307 3.906 6.062 9.317 6.595l.285-.134c.023-.011.047-.021.071-.028l2.506-1.171V2.693L11.69 3.651V20.34c0 .215-.092.419-.252.561-.16.143-.374.206-.587.185-.5-.06-1.014-.152-1.526-.275l-.172-.043c-.154-.038-.306-.077-.452-.126C5.338 19.663 3.23 17.552 3.23 15.14c0-2.283 1.885-4.296 4.96-5.34V9.027zM8.94 10.35h.01H8.94z"/><path d="M10.94 21.09c-.414 0-.75-.336-.75-.75V3.18c0-.414.336-.75.75-.75s.75.336.75.75v17.16C11.69 20.754 11.354 21.09 10.94 21.09zM14.43 21.63c-.414 0-.75-.336-.75-.75V1.5c0-.414.336-.75.75-.75s.75.336.75.75v19.38C15.18 21.294 14.844 21.63 14.43 21.63z"/></svg>